<?xml version="1.0" encoding="utf-8"?>
<svg width="40" height="40" viewBox="0 0 40 40" fill="none" xmlns="http://www.w3.org/2000/svg">
  <g>
    <path d="M21.4671 7.54504C20.2375 3.08764 16.1828 1.90735e-06 11.5589 0C6.93503 0 2.88032 3.08764 1.65072 7.54504C1.65072 7.54504 0.225095 12.713 0.225095 12.713C-0.293764 14.5939 0.095541 16.6092 1.27761 18.1615C2.45968 19.7138 4.29887 20.625 6.25002 20.625C6.25002 20.625 16.8678 20.625 16.8678 20.625C18.819 20.625 20.6582 19.7138 21.8402 18.1615C23.0223 16.6092 23.4116 14.5939 22.8927 12.713C22.8927 12.713 21.4671 7.54504 21.4671 7.54504ZM19.8513 16.6466C19.145 17.5816 18.0396 18.1294 16.8678 18.125C16.8678 18.125 6.25001 18.125 6.25001 18.125C5.0793 18.1251 3.97576 17.5783 3.26651 16.6469C2.55726 15.7155 2.32368 14.5063 2.63501 13.3778C2.63501 13.3778 4.06064 8.2099 4.06064 8.2099C4.99119 4.83666 8.05968 2.50003 11.5589 2.50003C15.0582 2.50003 18.1266 4.83666 19.0572 8.2099C19.0572 8.2099 20.4828 13.3778 20.4828 13.3778C20.7987 14.5061 20.5647 15.7174 19.8513 16.6469C19.8513 16.6469 19.8513 16.6466 19.8513 16.6466Z" fill="#000000" transform="matrix(1 0 0 1 8.441 16.25)" />
    <path d="M10.1579 7.19296C10.3754 5.83358 10.087 4.37834 9.3454 3.09428C8.60384 1.81022 7.48759 0.832798 6.20189 0.341469C4.82501 -0.18439 3.42064 -0.10064 2.2461 0.577172C-0.0888171 1.9253 -0.70327 5.24788 0.876651 7.98381C1.61798 9.26788 2.73431 10.2455 4.02001 10.7366C4.58955 10.9586 5.19493 11.0743 5.80618 11.0781C6.5677 11.0809 7.31633 10.8817 7.97579 10.5008C9.14962 9.82295 9.92462 8.64819 10.1579 7.19296ZM7.68915 6.79778C7.57743 7.49535 7.23524 8.04152 6.72563 8.33574C6.21602 8.62996 5.57196 8.65309 4.9118 8.40113C4.16079 8.11434 3.49657 7.52215 3.04141 6.73379C2.16641 5.21817 2.37438 3.39004 3.4961 2.74223C3.77808 2.58221 4.09744 2.49978 4.42165 2.50332C4.72577 2.50647 5.02675 2.56517 5.30977 2.67653C6.06079 2.96348 6.72501 3.55559 7.18016 4.34395C7.63532 5.13231 7.81602 6.00395 7.68915 6.79778C7.68915 6.79778 7.68915 6.79778 7.68915 6.79778Z" fill="#000000" transform="matrix(1 0 0 1 1.256 10.8)" />
    <path d="M2.30843 10.3155C3.19608 11.0251 4.20975 11.3946 5.23483 11.3945C5.54188 11.3944 5.84803 11.3614 6.14803 11.296C8.78264 10.7233 10.3801 7.74577 9.70897 4.65866C9.70897 4.65866 9.70897 4.65866 9.70897 4.65866C9.39413 3.20976 8.62866 1.93858 7.55366 1.07913C6.40249 0.158818 5.03889 -0.189542 3.71405 0.0985832C1.07952 0.671239 -0.517903 3.64874 0.153112 6.73585C0.468036 8.18483 1.23351 9.45601 2.30843 10.3155ZM4.24499 2.54154C4.36647 2.51534 4.49041 2.50225 4.61468 2.50248C5.07937 2.50248 5.55734 2.68427 5.99257 3.03224C6.62046 3.53419 7.07273 4.30052 7.26601 5.19013C7.26601 5.19013 7.26601 5.19013 7.26601 5.19013C7.63788 6.90068 6.88273 8.57826 5.61703 8.85341C5.04195 8.97841 4.42132 8.80435 3.8696 8.36318C3.24171 7.86115 2.78945 7.09482 2.59616 6.20529C2.22421 4.49427 2.97937 2.81669 4.245 2.54154C4.245 2.54154 4.24499 2.54154 4.24499 2.54154Z" fill="#000000" transform="translate(9.376 2.498)" />
    <path d="M7.98221 0.577172C6.80815 -0.10064 5.40307 -0.18439 4.02643 0.341469C2.74073 0.832642 1.6244 1.81022 0.883072 3.09428C0.141745 4.37834 -0.146772 5.83389 0.0705719 7.19295C0.303541 8.64819 1.07838 9.82295 2.25268 10.5008C2.91212 10.8817 3.66077 11.0809 4.42229 11.0781C5.03354 11.0743 5.63893 10.9586 6.20847 10.7366C7.49417 10.2455 8.6105 9.26787 9.35182 7.98381C10.9316 5.24787 10.3171 1.9253 7.98221 0.577172ZM7.18691 6.73379C6.73176 7.52215 6.06754 8.11434 5.31652 8.40113C4.65668 8.65332 4.01246 8.63012 3.50285 8.33574C2.99324 8.04137 2.65129 7.49535 2.53933 6.79777C2.4123 6.00395 2.59293 5.13262 3.04816 4.34465C3.5034 3.55668 4.16754 2.96418 4.91855 2.67723C5.20155 2.56577 5.50254 2.50697 5.80668 2.50371C6.13088 2.50016 6.45024 2.5826 6.73222 2.74262C7.85394 3.38988 8.06215 5.21777 7.18691 6.73379C7.18691 6.73379 7.18691 6.73379 7.18691 6.73379Z" fill="#000000" transform="matrix(1 0 0 1 28.515 10.8)" />
    <path d="M3.71408 11.2959C4.01408 11.3613 4.32023 11.3943 4.62728 11.3944C5.65228 11.3944 6.66635 11.0249 7.55369 10.3153C8.62861 9.45595 9.39408 8.1847 9.709 6.7358C10.38 3.64869 8.7826 0.671185 6.14807 0.0985289C4.8233 -0.18944 3.45963 0.158685 2.30846 1.07908C1.23346 1.93845 0.467987 3.2097 0.153143 4.65853C-0.51795 7.74564 1.07947 10.7231 3.71408 11.2959ZM2.59608 5.18962C2.59608 5.18962 2.59608 5.18962 2.59608 5.18962C2.78936 4.30001 3.24162 3.53337 3.86951 3.03173C4.30482 2.68376 4.78272 2.50197 5.2474 2.50197C5.37168 2.50174 5.49561 2.51484 5.61709 2.54103C6.88272 2.81619 7.63787 4.49415 7.26608 6.20431C7.07264 7.09392 6.62037 7.86056 5.99264 8.36228C5.441 8.80337 4.82076 8.97744 4.24522 8.85251C2.97936 8.57775 2.22421 6.89994 2.59608 5.18962C2.59608 5.18962 2.59608 5.18962 2.59608 5.18962Z" fill="#000000" transform="translate(20.761 2.499)" />
  </g>
</svg>