<?xml version="1.0" encoding="utf-8"?>
<svg width="1477.091" height="1363.826" viewBox="0 0 1477.091 1363.826" fill="none" xmlns="http://www.w3.org/2000/svg">
  <defs>
    <clipPath id="clip_path_1">
      <rect width="251.299" height="270.995" />
    </clipPath>
  </defs>
  <g transform="translate(6 2)">
    <g transform="matrix(0.966 0.259 -0.259 0.966 274.678 56.347)">
      <g transform="matrix(0.667 -0.708 0.757 0.695 368.342 124.686)">
        <g transform="matrix(1 -0 0 1 25.404 23.632)">
          <path d="M14.0317 48.0387C22.351 52.5322 30.6321 38.4373 30.9771 28.2214C31.2838 17.9671 28.3658 9.43845 23.5735 4.33049C18.7813 -0.777453 13.9606 -0.501612 9.20985 0.813732C5.67478 1.7925 2.87535 3.79541 1.38017 8.55771C0.575069 11.0541 -1.90735e-06 14.357 -1.90735e-06 18.62C-1.90735e-06 22.2685 0.498392 25.8787 1.38017 29.3352C3.52709 37.6692 8.12765 44.8894 14.0317 48.0387Z" fill="#958176" fill-rule="evenodd" fill-opacity="0.251" transform="matrix(1 0 -0 1 29.616 0)" />
          <path d="M10.4854 49.58C17.4629 51.5387 24.2871 42.8975 28.4276 34.1026C30.3445 29.9932 31.6863 25.8838 32.1847 22.7345C33.0665 17.2425 32.5156 6.74497 27.8403 2.61167C23.1833 -1.50543 15.1613 -0.259488 9.85019 2.93028C4.22494 6.30871 2.16607 10.5983 0.55587 21.7744C-1.01598 32.9504 0.287506 46.6996 10.4854 49.58Z" fill="#958176" fill-rule="evenodd" fill-opacity="0.251" transform="matrix(1 0 -0 1 67.628 1.032)" />
          <path d="M14.5317 2.74619C14.5317 2.74619 8.32094 7.20124 4.06543 13.6534C2.07185 16.6874 0.461662 20.1823 0.154953 23.8693C-0.458458 31.1664 0.730019 36.9272 4.06543 40.1533C5.98233 42.0351 8.58931 43.0337 12.0014 43.0337C21.2792 43.0337 33.0873 29.5917 33.0873 17.1099C33.049 4.66647 26.3398 -4.93494 14.5317 2.74619C14.5317 2.74619 14.5317 2.74619 14.5317 2.74619Z" fill="#958176" fill-rule="evenodd" fill-opacity="0.251" transform="matrix(1 0 -0 1 92.028 44.025)" />
          <path d="M30.9577 36.4711C32.4528 33.5523 32.7212 29.3276 31.8011 23.1827C31.6094 21.877 31.3027 20.648 30.9577 19.419C27.7373 8.78063 18.1628 0.0805206 11.0933 0.000564575C1.42743 -0.108761 -2.35805 15.8089 1.47575 25.4103C5.30955 35.0117 12.6704 43.6529 21.6032 42.0399C26.2421 41.2334 29.3475 39.6204 30.9577 36.4711Z" fill="#958176" fill-rule="evenodd" fill-opacity="0.251" transform="matrix(1 0 -0 1 -0 36.378)" />
          <path d="M78.0867 33.1711C71.8376 20.1516 61.103 7.90019 56.3107 3.63717C50.56 -1.47079 38.1494 -0.727505 30.2844 2.95808C22.5171 6.5979 22.8033 11.7791 12.9888 23.8001C9.26998 28.3704 5.97291 33.2863 3.941 38.2022C-2.34643 53.5645 -0.542608 56.2221 5.35421 60.9261C9.78885 64.4638 22.758 59.4554 24.0615 59.1865C33.3393 57.2663 40.6304 50.0312 55.9656 56.1377C64.7067 59.5942 75.2732 60.7961 80.1421 56.994C83.7842 54.1519 83.2623 47.842 81.2304 41.0827C80.4253 38.4711 79.3518 35.8211 78.0867 33.1711Z" fill="#958176" fill-rule="evenodd" fill-opacity="0.251" transform="matrix(1 0 -0 1 17.969 63.911)" />
        </g>
      </g>
      <g transform="matrix(0.877 0.531 -0.497 0.839 366.988 26.838)">
        <g transform="matrix(1 0 -0 1 13.342 12.673)">
          <path d="M7.36917 25.7599C11.7383 28.1694 16.0873 20.6113 16.2685 15.1332C16.4296 9.63452 14.8971 5.06119 12.3804 2.32215C9.86356 -0.416896 7.33181 -0.268981 4.83683 0.436348C2.98028 0.961193 1.51008 2.03522 0.724838 4.58892C0.302014 5.92755 -9.53674e-07 7.69866 -9.53674e-07 9.98462C-9.53674e-07 11.9411 0.261746 13.877 0.724836 15.7304C1.85236 20.1994 4.26848 24.0711 7.36917 25.7599Z" fill="#958176" fill-rule="evenodd" fill-opacity="0.251" transform="matrix(1 -0 -0 1 15.554 0)" />
          <path d="M5.50673 26.5864C9.17118 27.6367 12.7551 23.003 14.9296 18.2869C15.9363 16.0833 16.641 13.8797 16.9028 12.191C17.3659 9.24596 17.0765 3.61686 14.6212 1.40046C12.1754 -0.807257 7.96241 -0.139146 5.17312 1.57131C2.21885 3.38293 1.13758 5.68315 0.291931 11.6761C-0.533573 17.669 0.150993 25.0418 5.50673 26.5864Z" fill="#958176" fill-rule="evenodd" fill-opacity="0.251" transform="matrix(1 0 -0 1 35.517 0.553)" />
          <path d="M7.63175 1.47259C7.63175 1.47259 4.36999 3.86153 2.13508 7.32138C1.08809 8.94832 0.242455 10.8224 0.0813789 12.7995C-0.240772 16.7124 0.383392 19.8015 2.13508 21.5315C3.1418 22.5406 4.51093 23.076 6.30289 23.076C11.1754 23.076 17.3768 15.868 17.3768 9.17486C17.3566 2.50231 13.8331 -2.64627 7.63175 1.47259C7.63175 1.47259 7.63175 1.47259 7.63175 1.47259Z" fill="#958176" fill-rule="evenodd" fill-opacity="0.251" transform="matrix(1 0 -0 1 48.331 23.608)" />
          <path d="M16.2583 19.557C17.0436 17.9918 17.1845 15.7264 16.7013 12.4313C16.6006 11.7311 16.4396 11.0721 16.2583 10.4131C14.5671 4.70845 9.53872 0.0431767 5.82597 0.000301361C0.749658 -0.058321 -1.2384 8.47721 0.775034 13.6258C2.78847 18.7744 6.65426 23.4081 11.3456 22.5431C13.7818 22.1107 15.4127 21.2457 16.2583 19.557Z" fill="#958176" fill-rule="evenodd" fill-opacity="0.251" transform="matrix(1 0 -0 1 0 19.507)" />
          <path d="M41.0096 17.7874C37.7277 10.8059 32.09 4.23633 29.5732 1.95036C26.5531 -0.788685 20.0353 -0.390114 15.9048 1.58622C11.8255 3.538 11.9758 6.31635 6.82144 12.7624C4.86841 15.2131 3.13685 17.8492 2.06973 20.4852C-1.2323 28.723 -0.284966 30.1481 2.81192 32.6705C5.14091 34.5675 11.9521 31.8819 12.6366 31.7377C17.5091 30.708 21.3383 26.8283 29.392 30.1028C33.9827 31.9563 39.532 32.6008 42.089 30.562C44.0018 29.038 43.7277 25.6544 42.6606 22.0298C42.2377 20.6294 41.674 19.2084 41.0096 17.7874Z" fill="#958176" fill-rule="evenodd" fill-opacity="0.251" transform="matrix(1 0 -0 1 9.437 34.271)" />
        </g>
      </g>
      <g transform="matrix(0.971 0.313 -0.27 0.943 370.293 149.814)">
        <g transform="matrix(1 -0 0 1 25.404 23.632)">
          <path d="M14.0317 48.0387C22.3511 52.5322 30.6321 38.4373 30.9771 28.2214C31.2838 17.9671 28.3658 9.43844 23.5735 4.33049C18.7813 -0.777456 13.9606 -0.501614 9.20986 0.813731C5.67478 1.7925 2.87535 3.79541 1.38017 8.55771C0.575069 11.0541 0 14.357 0 18.62C0 22.2685 0.498394 25.8787 1.38017 29.3352C3.52709 37.6692 8.12765 44.8895 14.0317 48.0387Z" fill="#958176" fill-rule="evenodd" fill-opacity="0.251" transform="matrix(1 -0 -0 1 29.616 -0)" />
          <path d="M10.4854 49.58C17.4629 51.5387 24.2871 42.8974 28.4276 34.1026C30.3445 29.9932 31.6863 25.8838 32.1847 22.7345C33.0665 17.2425 32.5156 6.74496 27.8403 2.61167C23.1834 -1.50543 15.1613 -0.25949 9.8502 2.93027C4.22494 6.30871 2.16607 10.5983 0.55587 21.7744C-1.01598 32.9504 0.287506 46.6996 10.4854 49.58Z" fill="#958176" fill-rule="evenodd" fill-opacity="0.251" transform="matrix(1 -0 -0 1 67.628 1.032)" />
          <path d="M14.5317 2.74619C14.5317 2.74619 8.32095 7.20124 4.06543 13.6534C2.07185 16.6874 0.461662 20.1823 0.154953 23.8693C-0.458458 31.1664 0.730019 36.9272 4.06543 40.1533C5.98233 42.0351 8.58931 43.0337 12.0014 43.0337C21.2792 43.0337 33.0873 29.5917 33.0873 17.1099C33.049 4.66647 26.3398 -4.93494 14.5317 2.74619C14.5317 2.74619 14.5317 2.74619 14.5317 2.74619Z" fill="#958176" fill-rule="evenodd" fill-opacity="0.251" transform="matrix(1 0 -0 1 92.029 44.025)" />
          <path d="M30.9577 36.4711C32.4528 33.5522 32.7212 29.3276 31.8011 23.1827C31.6094 21.8769 31.3027 20.648 30.9577 19.419C27.7373 8.78063 18.1628 0.0805168 11.0933 0.00056076C1.42743 -0.108761 -2.35805 15.8089 1.47575 25.4103C5.30955 35.0117 12.6704 43.6529 21.6032 42.0399C26.2421 41.2334 29.3475 39.6203 30.9577 36.4711Z" fill="#958176" fill-rule="evenodd" fill-opacity="0.251" transform="matrix(1 -0 -0 1 0 36.378)" />
          <path d="M78.0867 33.1711C71.8376 20.1516 61.103 7.90018 56.3107 3.63715C50.56 -1.47079 38.1494 -0.727509 30.2844 2.95808C22.5171 6.59789 22.8033 11.7791 12.9888 23.8001C9.26998 28.3704 5.97291 33.2863 3.941 38.2022C-2.34643 53.5645 -0.542606 56.2221 5.35421 60.9261C9.78886 64.4637 22.758 59.4554 24.0615 59.1865C33.3393 57.2662 40.6305 50.0311 55.9657 56.1376C64.7067 59.5941 75.2732 60.7961 80.1422 56.9939C83.7843 54.1519 83.2623 47.842 81.2304 41.0826C80.4253 38.471 79.3518 35.8211 78.0867 33.1711Z" fill="#958176" fill-rule="evenodd" fill-opacity="0.251" transform="matrix(1 -0 -0 1 17.969 63.912)" />
        </g>
      </g>
      <g transform="matrix(0.924 -0.349 0.403 0.93 93.891 299.987)">
        <g transform="matrix(1 -0 0 1 46.97 41.442)">
          <path d="M25.9435 84.2418C41.3254 92.1217 56.6363 67.4046 57.2743 49.4897C57.8413 31.5075 52.4462 16.5515 43.5857 7.59406C34.7252 -1.36336 25.812 -0.87964 17.0283 1.42698C10.4922 3.14336 5.3163 6.65573 2.55183 15.007C1.06326 19.3847 0 25.1767 0 32.6525C0 39.0506 0.921494 45.3814 2.55183 51.4428C6.52133 66.0576 15.0274 78.7192 25.9435 84.2418Z" fill="#958176" fill-rule="evenodd" fill-opacity="0.251" transform="matrix(1 -0 0 1 54.757 0)" />
          <path d="M19.3867 86.9447C32.2876 90.3795 44.905 75.226 52.5605 59.8031C56.1046 52.5967 58.5856 45.3904 59.5071 39.8678C61.1374 30.2368 60.1189 11.8281 51.4746 4.57989C42.8642 -2.63995 28.0321 -0.455045 18.2122 5.1386C7.81158 11.0631 4.0049 18.5855 1.02776 38.184C-1.87846 57.7826 0.531586 81.8936 19.3867 86.9447Z" fill="#958176" fill-rule="evenodd" fill-opacity="0.251" transform="matrix(1 -0 0 1 125.039 1.809)" />
          <path d="M26.868 4.81578C26.868 4.81578 15.3848 12.6283 7.51668 23.9429C3.8307 29.2635 0.853577 35.3923 0.286499 41.8578C-0.847656 54.6541 1.34976 64.7564 7.51668 70.4138C11.0609 73.7139 15.881 75.4649 22.1897 75.4649C39.3436 75.4649 61.1759 51.8928 61.1759 30.0043C61.105 8.18324 48.7003 -8.65403 26.868 4.81578C26.868 4.81578 26.868 4.81578 26.868 4.81578Z" fill="#958176" fill-rule="evenodd" fill-opacity="0.251" transform="matrix(1 -0 0 1 170.154 77.203)" />
          <path d="M57.2383 63.9566C60.0028 58.8381 60.499 51.4297 58.7978 40.6538C58.4434 38.3639 57.8763 36.2088 57.2383 34.0536C51.2841 15.3979 33.5816 0.141201 20.5107 0.000988007C2.63921 -0.190723 -4.35985 27.7228 2.72855 44.5601C9.81695 61.3973 23.4267 76.5509 39.9427 73.7222C48.5196 72.3079 54.2612 69.4792 57.2383 63.9566Z" fill="#958176" fill-rule="evenodd" fill-opacity="0.251" transform="matrix(1 -0 0 1 0 63.793)" />
          <path d="M144.376 58.1696C132.822 35.3383 112.975 13.854 104.114 6.37821C93.4816 -2.57922 70.5353 -1.27577 55.9935 5.18736C41.6324 11.5702 42.1615 20.6562 24.0152 41.7365C17.1395 49.751 11.0435 58.3717 7.28662 66.9924C-4.33837 93.932 -1.00323 98.5924 9.89953 106.842C18.0989 113.045 42.0779 104.262 44.4879 103.791C61.6419 100.423 75.1226 87.7359 103.476 98.4443C119.638 104.506 139.174 106.614 148.177 99.946C154.911 94.9621 153.946 83.897 150.189 72.0435C148.7 67.4638 146.715 62.8167 144.376 58.1696Z" fill="#958176" fill-rule="evenodd" fill-opacity="0.251" transform="matrix(1 -0 0 1 33.223 112.077)" />
        </g>
      </g>
      <g transform="matrix(-0.693 0.684 -0.733 -0.72 210.576 372.993)">
        <g transform="matrix(1 0 0 1 17.179 16.317)">
          <path d="M9.48907 33.1703C15.1151 36.273 20.7152 26.5406 20.9486 19.4866C21.156 12.4061 19.1826 6.51716 15.9418 2.99017C12.701 -0.536825 9.44097 -0.346359 6.22825 0.561874C3.83762 1.2377 1.94448 2.6207 0.933353 5.90902C0.388897 7.63274 0 9.91335 0 12.8569C0 15.3762 0.337044 17.869 0.933353 20.2557C2.38523 26.0102 5.4964 30.9957 9.48907 33.1703Z" fill="#958176" fill-rule="evenodd" fill-opacity="0.251" transform="matrix(1 -0 -0 1 20.028 0)" />
          <path d="M7.09087 34.2346C11.8095 35.587 16.4244 29.6203 19.2244 23.5475C20.5208 20.71 21.4282 17.8725 21.7652 15.698C22.3615 11.9058 21.989 4.65733 18.8273 1.80333C15.678 -1.03948 10.253 -0.179175 6.66129 2.02333C2.85715 4.3561 1.46482 7.31803 0.375912 15.035C-0.687065 22.7519 0.194431 32.2457 7.09087 34.2346Z" fill="#958176" fill-rule="evenodd" fill-opacity="0.251" transform="matrix(1 -0 -0 1 45.734 0.713)" />
          <path d="M9.82721 1.89622C9.82721 1.89622 5.62712 4.97239 2.74929 9.42754C1.40111 11.5225 0.312202 13.9357 0.104786 16.4815C-0.310036 21.5201 0.493683 25.4979 2.74929 27.7255C4.04561 29.0249 5.80861 29.7144 8.11607 29.7144C14.3903 29.7144 22.3756 20.4328 22.3756 11.8142C22.3497 3.22215 17.8126 -3.40753 9.82721 1.89622C9.82721 1.89622 9.82721 1.89622 9.82721 1.89622Z" fill="#958176" fill-rule="evenodd" fill-opacity="0.251" transform="matrix(1 -0 -0 1 62.235 30.399)" />
          <path d="M20.9354 25.183C21.9466 23.1675 22.128 20.2505 21.5058 16.0075C21.3762 15.1058 21.1688 14.2572 20.9354 13.4086C18.7576 6.06294 12.2828 0.0555973 7.50195 0.000389099C0.965315 -0.075098 -1.59465 10.9159 0.997991 17.5456C3.59064 24.1752 8.56851 30.142 14.6094 29.0282C17.7465 28.4713 19.8465 27.3575 20.9354 25.183Z" fill="#958176" fill-rule="evenodd" fill-opacity="0.251" transform="matrix(1 -0 -0 1 0 25.118)" />
          <path d="M52.8069 22.9043C48.5809 13.9145 41.3215 5.45501 38.0807 2.51143C34.1917 -1.01557 25.7989 -0.502338 20.4801 2.04253C15.2274 4.55578 15.4209 8.13339 8.78378 16.4338C6.26892 19.5895 4.03924 22.9839 2.66514 26.3783C-1.5868 36.9858 -0.366941 38.8208 3.62084 42.0689C6.61981 44.5116 15.3903 41.0534 16.2718 40.8678C22.546 39.5418 27.4767 34.5461 37.8473 38.7625C43.7585 41.1492 50.9042 41.9791 54.1969 39.3538C56.6599 37.3914 56.3069 33.0345 54.9328 28.3672C54.3884 26.5639 53.6624 24.7341 52.8069 22.9043Z" fill="#958176" fill-rule="evenodd" fill-opacity="0.251" transform="matrix(1 -0 -0 1 12.152 44.13)" />
        </g>
      </g>
      <g transform="matrix(0.85 0.574 -0.543 0.81 183.397 452.605)">
        <g transform="matrix(1 0 -0 1 29.973 25.002)">
          <path d="M16.5554 50.8236C26.371 55.5775 36.1414 40.6655 36.5485 29.8574C36.9104 19.0087 33.4676 9.9856 27.8134 4.58154C22.1592 -0.822521 16.4715 -0.53069 10.8663 0.860906C6.69543 1.89641 3.3925 4.01544 1.6284 9.05381C0.678497 11.6949 -3.8147e-06 15.1892 -3.8147e-06 19.6994C-3.8147e-06 23.5594 0.588032 27.3789 1.6284 31.0357C4.16146 39.8529 9.58946 47.4917 16.5554 50.8236Z" fill="#958176" fill-rule="evenodd" fill-opacity="0.251" transform="matrix(1 0 -0 1 34.942 0)" />
          <path d="M12.3713 52.4542C20.6037 54.5265 28.6553 45.3843 33.5405 36.0795C35.8022 31.7319 37.3853 27.3843 37.9734 24.0524C39.0137 18.2421 38.3638 7.13598 32.8476 2.76307C27.353 -1.59269 17.8882 -0.274529 11.6218 3.10015C4.98482 6.67443 2.55565 11.2127 0.655846 23.0366C-1.19872 34.8605 0.339218 49.4068 12.3713 52.4542Z" fill="#958176" fill-rule="evenodd" fill-opacity="0.251" transform="matrix(1 0 -0 1 79.791 1.092)" />
          <path d="M17.1453 2.90539C17.1453 2.90539 9.81752 7.61871 4.79663 14.4449C2.44449 17.6548 0.544693 21.3523 0.182816 25.253C-0.540916 32.9731 0.86132 39.0679 4.79662 42.481C7.0583 44.472 10.1342 45.5284 14.1599 45.5284C25.1064 45.5284 39.0383 31.3072 39.0383 18.1018C38.9931 4.93699 31.0772 -5.22102 17.1453 2.90539C17.1453 2.90539 17.1453 2.90539 17.1453 2.90539Z" fill="#958176" fill-rule="evenodd" fill-opacity="0.251" transform="matrix(1 0 -0 1 108.581 46.577)" />
          <path d="M36.5256 38.5854C38.2897 35.4973 38.6063 31.0278 37.5207 24.5267C37.2946 23.1452 36.9327 21.845 36.5256 20.5447C32.726 9.28965 21.4295 0.0851898 13.0885 0.000595093C1.68416 -0.115067 -2.78216 16.7253 1.74117 26.8833C6.2645 37.0413 14.9493 46.1835 25.4887 44.477C30.9619 43.6237 34.6258 41.9172 36.5256 38.5854Z" fill="#958176" fill-rule="evenodd" fill-opacity="0.251" transform="matrix(1 0 -0 1 0 38.486)" />
          <path d="M92.1311 35.094C84.7581 21.3198 72.0928 8.35817 66.4386 3.84801C59.6536 -1.55605 45.0108 -0.769676 35.7313 3.12957C26.5669 6.98038 26.9046 12.462 15.3249 25.1798C10.9373 30.015 7.04718 35.2159 4.64982 40.4168C-2.76846 56.6696 -0.6402 59.4813 6.3172 64.4581C11.5494 68.2008 26.8512 62.902 28.3892 62.6176C39.3356 60.586 47.9381 52.9315 66.0315 59.392C76.3447 63.0489 88.8116 64.3205 94.5563 60.2979C98.8534 57.2912 98.2376 50.6155 95.8403 43.4642C94.8904 40.7013 93.6238 37.8977 92.1311 35.094Z" fill="#958176" fill-rule="evenodd" fill-opacity="0.251" transform="matrix(1 0 -0 1 21.201 67.616)" />
        </g>
      </g>
      <g transform="matrix(0.402 0.928 -0.926 0.35 198.905 745.17)">
        <g transform="matrix(1 -0 0 1 37.486 29.112)">
          <path d="M20.7052 59.1781C32.9813 64.7136 45.2008 47.3503 45.7099 34.7655C46.1625 22.1334 41.8566 11.6271 34.7852 5.33467C27.7137 -0.957732 20.6003 -0.617928 13.5901 1.00242C8.37372 2.20815 4.24287 4.67551 2.03658 10.5421C0.848576 13.6173 0 17.6861 0 22.9377C0 27.4322 0.735432 31.8795 2.03658 36.1375C5.20459 46.4041 11.9932 55.2986 20.7052 59.1781Z" fill="#958176" fill-rule="evenodd" fill-opacity="0.251" transform="matrix(1 0 -0 1 43.702 0)" />
          <path d="M15.4723 61.0769C25.7683 63.4897 35.8381 52.8447 41.9478 42.0104C44.7764 36.9481 46.7564 31.8858 47.4919 28.0063C48.793 21.2408 47.9801 8.30902 41.0813 3.21728C34.2094 -1.85451 22.3721 -0.319659 14.535 3.60976C6.23433 7.7716 3.19626 13.0559 0.820244 26.8235C-1.49918 40.5911 0.424248 57.5285 15.4723 61.0769Z" fill="#958176" fill-rule="evenodd" fill-opacity="0.251" transform="matrix(1 0 -0 1 99.792 1.271)" />
          <path d="M21.443 3.38299C21.443 3.38299 12.2784 8.8711 5.99896 16.8194C3.05724 20.557 0.681229 24.8623 0.228653 29.4042C-0.676498 38.3933 1.07722 45.4901 5.99896 49.4642C8.82755 51.7824 12.6744 53.0125 17.7093 53.0125C31.3997 53.0125 48.8238 36.4536 48.8238 21.0774C48.7672 5.74855 38.8671 -6.07927 21.443 3.38299C21.443 3.38299 21.443 3.38299 21.443 3.38299Z" fill="#958176" fill-rule="evenodd" fill-opacity="0.251" transform="matrix(1 0 -0 1 135.798 54.234)" />
          <path d="M45.6812 44.9282C47.8875 41.3325 48.2835 36.1283 46.9258 28.5584C46.643 26.9499 46.1904 25.4359 45.6812 23.9219C40.9292 10.8167 26.801 0.0991936 16.3693 0.000694275C2.10632 -0.13398 -3.47954 19.4747 2.17762 31.3025C7.83479 43.1303 18.6965 53.7754 31.8777 51.7883C38.7229 50.7947 43.3052 48.8077 45.6812 44.9282Z" fill="#958176" fill-rule="evenodd" fill-opacity="0.251" transform="matrix(1 0 -0 1 0 44.813)" />
          <path d="M115.225 40.863C106.004 24.8244 90.1637 9.73212 83.0923 4.48057C74.6065 -1.81184 56.2934 -0.896202 44.6878 3.64402C33.2263 8.12785 33.6486 14.5106 19.1663 29.319C13.6788 34.949 8.81365 41.0049 5.81536 47.0607C-3.4624 65.9853 -0.800671 69.2591 7.90069 75.054C14.4445 79.4119 33.5818 73.2422 35.5053 72.911C49.1956 70.5454 59.9544 61.6326 82.5831 69.1551C95.4814 73.4131 111.073 74.8938 118.258 70.21C123.632 66.7089 122.862 58.9359 119.864 50.6091C118.676 47.3919 117.092 44.1274 115.225 40.863Z" fill="#958176" fill-rule="evenodd" fill-opacity="0.251" transform="matrix(1 0 -0 1 26.515 78.732)" />
        </g>
      </g>
      <g transform="matrix(0.975 0.296 -0.253 0.948 306.516 432.966)">
        <g transform="matrix(1 0 -0 1 40.756 39.558)">
          <path d="M22.5113 80.4127C35.8582 87.9343 49.1436 64.3407 49.6971 47.2402C50.1892 30.0754 45.5077 15.7991 37.8195 7.24887C30.1312 -1.30139 22.3972 -0.839656 14.7755 1.36212C9.10415 3.00048 4.61298 6.3532 2.21423 14.3249C0.922596 18.5036 0 24.0323 0 31.1683C0 37.2756 0.799587 43.3186 2.21423 49.1045C5.65858 63.055 13.0393 75.1411 22.5113 80.4127Z" fill="#958176" fill-rule="evenodd" fill-opacity="0.251" transform="matrix(1 0 0 1 47.513 0)" />
          <path d="M16.8219 82.9927C28.0161 86.2714 38.9642 71.8066 45.6069 57.0847C48.6822 50.206 50.8349 43.3272 51.6345 38.0556C53.0492 28.8624 52.1654 11.2905 44.6647 4.37171C37.1935 -2.51996 24.3235 -0.434361 15.8028 4.90503C6.77814 10.5602 3.47507 17.7407 0.891792 36.4484C-1.62995 55.1561 0.461266 78.1711 16.8219 82.9927Z" fill="#958176" fill-rule="evenodd" fill-opacity="0.251" transform="matrix(1 0 0 1 108.497 1.727)" />
          <path d="M23.3135 4.59689C23.3135 4.59689 13.3494 12.0543 6.52225 22.8546C3.32391 27.9333 0.740662 33.7835 0.248596 39.9551C-0.735504 52.1698 1.17119 61.813 6.52225 67.2131C9.59756 70.3632 13.78 72.0347 19.2541 72.0347C34.1386 72.0347 53.0826 49.534 53.0826 28.6405C53.0211 7.81127 42.2574 -8.26067 23.3135 4.59689C23.3135 4.59689 23.3135 4.59689 23.3135 4.59689Z" fill="#958176" fill-rule="evenodd" fill-opacity="0.251" transform="matrix(1 0 0 1 147.643 73.694)" />
          <path d="M49.6659 61.0495C52.0647 56.1636 52.4952 49.092 51.0191 38.8059C50.7115 36.6201 50.2195 34.5629 49.6659 32.5057C44.4994 14.698 29.1389 0.134785 17.7972 0.00094223C2.29005 -0.182056 -3.78306 26.4627 2.36758 42.5346C8.51821 58.6065 20.3274 73.0713 34.6584 70.3712C42.1007 69.0211 47.0827 66.3211 49.6659 61.0495Z" fill="#958176" fill-rule="evenodd" fill-opacity="0.251" transform="matrix(1 0 0 1 0 60.893)" />
          <path d="M125.276 55.5256C115.25 33.732 98.0286 13.2242 90.3403 6.08829C81.1143 -2.46198 61.2037 -1.21778 48.5858 4.95158C36.1246 11.0443 36.5837 19.7173 20.8381 39.8394C14.872 47.4896 9.58245 55.7184 6.32263 63.9473C-3.76442 89.6624 -0.870504 94.111 8.58987 101.985C15.7044 107.907 36.5111 99.5232 38.6024 99.0732C53.4869 95.8588 65.1842 83.7479 89.7867 93.9696C103.81 99.7555 120.762 101.767 128.573 95.403C134.417 90.6457 133.579 80.0835 130.319 68.7688C129.028 64.3973 127.306 59.9614 125.276 55.5256Z" fill="#958176" fill-rule="evenodd" fill-opacity="0.251" transform="matrix(1 0 0 1 28.828 106.982)" />
        </g>
      </g>
      <g transform="matrix(0.706 -0.671 0.721 0.731 173.704 803.511)">
        <g transform="matrix(1 -0 -0 1 30.666 27.057)">
          <path d="M16.9383 55.0009C26.981 60.1455 36.9774 44.0079 37.3939 32.3115C37.7642 20.571 34.2417 10.8063 28.4567 4.9581C22.6718 -0.890129 16.8525 -0.57431 11.1177 0.931664C6.8503 2.05228 3.47097 4.34547 1.66607 9.79796C0.694195 12.6561 0 16.4377 0 21.3185C0 25.4959 0.601639 29.6292 1.66607 33.5866C4.25772 43.1285 9.81128 51.3952 16.9383 55.0009Z" fill="#958176" fill-rule="evenodd" fill-opacity="0.251" transform="matrix(1 0 0 1 35.751 0)" />
          <path d="M12.6575 56.7656C21.0803 59.0081 29.3181 49.1145 34.3163 39.045C36.6303 34.34 38.2501 29.635 38.8517 26.0294C39.9161 19.7414 39.2512 7.7225 33.6074 2.99017C27.9857 -1.72361 18.3019 -0.297095 11.8906 3.35495C5.10012 7.22301 2.61477 12.1343 0.671021 24.9301C-1.22643 37.7258 0.347069 53.4677 12.6575 56.7656Z" fill="#958176" fill-rule="evenodd" fill-opacity="0.251" transform="matrix(1 0 0 1 81.637 1.181)" />
          <path d="M17.5419 3.14419C17.5419 3.14419 10.0446 8.24491 4.90758 15.6321C2.50103 19.1059 0.557297 23.1073 0.18705 27.3286C-0.553421 35.6832 0.881248 42.279 4.90758 45.9726C7.22157 48.1272 10.3686 49.2705 14.4875 49.2705C25.6871 49.2705 39.9413 33.8804 39.9413 19.5896C39.895 5.34277 31.796 -5.65015 17.5419 3.14419C17.5419 3.14419 17.5419 3.14419 17.5419 3.14419Z" fill="#958176" fill-rule="evenodd" fill-opacity="0.251" transform="matrix(1 0 0 1 111.092 50.406)" />
          <path d="M37.3705 41.7568C39.1754 38.4149 39.4993 33.578 38.3886 26.5426C38.1572 25.0475 37.787 23.6404 37.3705 22.2333C33.483 10.0532 21.9251 0.0921898 13.3912 0.000644684C1.72312 -0.124523 -2.84651 18.1 1.78145 29.0929C6.40941 40.0858 15.2951 49.9795 26.0782 48.1327C31.6781 47.2092 35.4267 45.3625 37.3705 41.7568Z" fill="#958176" fill-rule="evenodd" fill-opacity="0.251" transform="matrix(1 0 0 1 0 41.65)" />
          <path d="M94.2621 37.9785C86.7186 23.0721 73.7603 9.04514 67.9753 4.16428C61.0334 -1.68395 46.0519 -0.832947 36.5577 3.38679C27.1814 7.55411 27.5269 13.4863 15.6794 27.2494C11.1902 32.482 7.21019 38.1104 4.75738 43.7388C-2.83248 61.3275 -0.654997 64.3702 6.46333 69.756C11.8166 73.8064 27.4723 68.0721 29.0458 67.7643C40.2455 65.5657 49.047 57.2821 67.5588 64.2736C78.1106 68.231 90.8659 69.6072 96.7434 65.254C101.14 62.0001 100.51 54.7757 98.0571 47.0367C97.0852 44.0466 95.7894 41.0126 94.2621 37.9785Z" fill="#958176" fill-rule="evenodd" fill-opacity="0.251" transform="matrix(1 0 0 1 21.691 73.174)" />
        </g>
      </g>
      <g transform="matrix(0.449 -0.864 0.904 0.488 390.577 809.931)">
        <g transform="matrix(1 -0 0 1 22.297 21.641)">
          <path d="M12.3156 43.9925C19.6175 48.1075 26.8857 35.1998 27.1885 25.8444C27.4577 16.4538 24.8966 8.64347 20.6905 3.96575C16.4843 -0.711971 12.2532 -0.459363 8.08347 0.745193C4.98074 1.64152 2.52369 3.47574 1.21137 7.83692C0.504738 10.123 0 13.1477 1.90735e-06 17.0517C1.90735e-06 20.3929 0.437443 23.699 1.21137 26.8643C3.09573 34.4964 7.13363 41.1085 12.3156 43.9925Z" fill="#958176" fill-rule="evenodd" fill-opacity="0.251" transform="matrix(1 0 0 1 25.994 0)" />
          <path d="M9.20304 45.404C15.3272 47.1978 21.3167 39.2843 24.9509 31.2302C26.6333 27.4669 27.811 23.7036 28.2485 20.8196C29.0224 15.7902 28.5389 6.17686 24.4354 2.3917C20.348 -1.37863 13.3071 -0.237632 8.64549 2.68347C3.70822 5.77734 1.90116 9.70564 0.487888 19.9404C-0.89172 30.1751 0.25235 42.7662 9.20304 45.404Z" fill="#958176" fill-rule="evenodd" fill-opacity="0.251" transform="matrix(1 0 0 1 59.357 0.945)" />
          <path d="M12.7544 2.51488C12.7544 2.51488 7.30328 6.5947 3.56822 12.5034C1.81846 15.2819 0.405205 18.4824 0.136002 21.8588C-0.402382 28.5413 0.640739 33.8169 3.56822 36.7713C5.25069 38.4946 7.53883 39.4091 10.5336 39.4091C18.6767 39.4091 29.0407 27.0993 29.0407 15.6688C29.007 4.27343 23.1184 -4.51928 12.7544 2.51488C12.7544 2.51488 12.7544 2.51488 12.7544 2.51488Z" fill="#958176" fill-rule="evenodd" fill-opacity="0.251" transform="matrix(1 0 0 1 80.773 40.317)" />
          <path d="M27.1715 33.3992C28.4838 30.7263 28.7194 26.8575 27.9118 21.2301C27.7435 20.0343 27.4743 18.9089 27.1715 17.7834C24.345 8.04107 15.9414 0.0737381 9.73657 0.000514984C1.25285 -0.0995979 -2.06965 14.4773 1.29527 23.27C4.66019 32.0627 11.1208 39.9762 18.9611 38.499C23.0326 37.7604 25.7582 36.2833 27.1715 33.3992Z" fill="#958176" fill-rule="evenodd" fill-opacity="0.251" transform="matrix(1 0 0 1 0 33.314)" />
          <path d="M68.5366 30.3772C63.0517 18.4543 53.63 7.23478 49.4238 3.33081C44.3764 -1.34691 33.4836 -0.666233 26.5806 2.70893C19.7632 6.04217 20.0144 10.787 11.4002 21.7955C8.13625 25.9808 5.24242 30.4827 3.45901 34.9846C-2.05945 49.0529 -0.476238 51.4867 4.69939 55.7945C8.59167 59.0342 19.9747 54.4476 21.1188 54.2014C29.2619 52.4429 35.6613 45.8172 49.121 51.4093C56.793 54.5747 66.0672 55.6754 70.3406 52.1935C73.5373 49.5909 73.0792 43.8124 71.2958 37.6224C70.5891 35.2308 69.647 32.804 68.5366 30.3772Z" fill="#958176" fill-rule="evenodd" fill-opacity="0.251" transform="matrix(1 0 0 1 15.771 58.528)" />
        </g>
      </g>
      <g transform="matrix(0.286 0.963 -0.969 0.234 120.643 14.699)">
        <g transform="matrix(1 0 -0 1 13.341 12.672)">
          <path d="M7.36917 25.7599C11.7383 28.1694 16.0874 20.6113 16.2686 15.1332C16.4296 9.63453 14.8972 5.0612 12.3804 2.32215C9.86357 -0.416896 7.33182 -0.268981 4.83683 0.436349C2.98028 0.961194 1.51008 2.03522 0.724838 4.58892C0.302015 5.92755 0 7.69867 0 9.98464C0 11.9411 0.261747 13.877 0.724838 15.7305C1.85236 20.1994 4.26848 24.0712 7.36917 25.7599Z" fill="#958176" fill-rule="evenodd" fill-opacity="0.251" transform="matrix(1 -0 0 1 15.554 0)" />
          <path d="M5.50674 26.5864C9.17119 27.6367 12.7551 23.003 14.9296 18.2869C15.9363 16.0833 16.641 13.8797 16.9028 12.191C17.3659 9.24597 17.0766 3.61686 14.6212 1.40046C12.1754 -0.807259 7.96242 -0.139146 5.17313 1.57131C2.21885 3.38293 1.13758 5.68315 0.291931 11.6761C-0.533569 17.6691 0.150997 25.0418 5.50674 26.5864Z" fill="#958176" fill-rule="evenodd" fill-opacity="0.251" transform="matrix(1 -0 0 1 35.517 0.553)" />
          <path d="M7.63176 1.4726C7.63176 1.4726 4.37 3.86154 2.13509 7.32139C1.0881 8.94834 0.242458 10.8224 0.0813789 12.7995C-0.240772 16.7124 0.383392 19.8016 2.13509 21.5315C3.1418 22.5406 4.51094 23.0761 6.3029 23.0761C11.1754 23.0761 17.3768 15.868 17.3768 9.17488C17.3567 2.50231 13.8332 -2.64627 7.63176 1.4726C7.63176 1.4726 7.63176 1.4726 7.63176 1.4726Z" fill="#958176" fill-rule="evenodd" fill-opacity="0.251" transform="matrix(1 -0 0 1 48.332 23.608)" />
          <path d="M16.2584 19.557C17.0436 17.9918 17.1845 15.7264 16.7013 12.4313C16.6006 11.7311 16.4396 11.0721 16.2584 10.4131C14.5671 4.70846 9.53873 0.0431767 5.82598 0.000301361C0.749659 -0.058321 -1.2384 8.47722 0.775036 13.6258C2.78847 18.7744 6.65427 23.4081 11.3456 22.5431C13.7818 22.1107 15.4127 21.2457 16.2584 19.557Z" fill="#958176" fill-rule="evenodd" fill-opacity="0.251" transform="matrix(1 -0 0 1 -0 19.507)" />
          <path d="M41.0096 17.7874C37.7277 10.8059 32.0901 4.23634 29.5733 1.95036C26.5531 -0.788685 20.0353 -0.390114 15.9048 1.58622C11.8255 3.538 11.9758 6.31636 6.82144 12.7624C4.86841 15.2131 3.13686 17.8492 2.06974 20.4853C-1.2323 28.723 -0.284964 30.1481 2.81193 32.6706C5.14092 34.5676 11.9521 31.8819 12.6366 31.7377C17.5092 30.708 21.3383 26.8283 29.3921 30.1028C33.9827 31.9563 39.532 32.6008 42.0891 30.562C44.0018 29.038 43.7277 25.6544 42.6606 22.0298C42.2378 20.6294 41.674 19.2084 41.0096 17.7874Z" fill="#958176" fill-rule="evenodd" fill-opacity="0.251" transform="matrix(1 -0 0 1 9.437 34.271)" />
        </g>
      </g>
    </g>
    <g transform="matrix(0.94 -0.342 0.342 0.94 430.979 227.433)">
      <g clip-path="url(#clip_path_1)" transform="matrix(0.716 -0.823 0.648 0.652 413.671 144.964)">
        <g transform="matrix(1 -0 0 1 25.404 26.221)">
          <path d="M14.0317 53.301C22.3511 58.2867 30.6321 42.6478 30.9771 31.3128C31.2838 19.9352 28.3658 10.4724 23.5735 4.80487C18.7813 -0.862617 13.9606 -0.55656 9.20985 0.90287C5.67478 1.98885 2.87535 4.21117 1.38017 9.49514C0.575069 12.265 0 15.9297 -1.90735e-06 20.6597C-1.90735e-06 24.7079 0.498394 28.7135 1.38017 32.5486C3.52709 41.7955 8.12765 49.8067 14.0317 53.301Z" fill="#958176" fill-rule="evenodd" fill-opacity="0.251" transform="matrix(1 0 -0 1 29.616 0)" />
          <path d="M10.4854 55.0111C17.4629 57.1844 24.2871 47.5965 28.4276 37.8382C30.3445 33.2787 31.6863 28.7191 32.1847 25.2249C33.0665 19.1313 32.5156 7.48382 27.8403 2.89776C23.1833 -1.67033 15.1613 -0.287913 9.85019 3.25127C4.22494 6.99978 2.16607 11.7593 0.55587 24.1596C-1.01598 36.5598 0.287506 51.8152 10.4854 55.0111Z" fill="#958176" fill-rule="evenodd" fill-opacity="0.251" transform="matrix(1 0 -0 1 67.628 1.145)" />
          <path d="M14.5317 3.04701C14.5317 3.04701 8.32095 7.99009 4.06543 15.149C2.07185 18.5154 0.461662 22.3932 0.154953 26.484C-0.458458 34.5804 0.730019 40.9723 4.06543 44.5518C5.98233 46.6398 8.58931 47.7477 12.0014 47.7477C21.2792 47.7477 33.0873 32.8333 33.0873 18.9842C33.049 5.17765 26.3398 -5.47552 14.5317 3.04701C14.5317 3.04701 14.5317 3.04701 14.5317 3.04701Z" fill="#958176" fill-rule="evenodd" fill-opacity="0.251" transform="matrix(1 0 -0 1 92.029 48.848)" />
          <path d="M30.9577 40.4662C32.4529 37.2276 32.7212 32.5403 31.8011 25.7222C31.6094 24.2734 31.3027 22.9098 30.9577 21.5462C27.7373 9.74248 18.1628 0.0893402 11.0933 0.00062561C1.42743 -0.120674 -2.35805 17.5406 1.47575 28.1938C5.30955 38.8469 12.6704 48.4348 21.6032 46.6451C26.2421 45.7502 29.3475 43.9605 30.9577 40.4662Z" fill="#958176" fill-rule="evenodd" fill-opacity="0.251" transform="matrix(1 0 -0 1 0 40.362)" />
          <path d="M78.0867 36.8047C71.8376 22.359 61.103 8.76559 56.3107 4.03558C50.56 -1.6319 38.1494 -0.807198 30.2844 3.28212C22.5171 7.32064 22.8033 13.0695 12.9888 26.4072C9.26998 31.4781 5.97291 36.9326 3.941 42.387C-2.34643 59.4321 -0.542606 62.3808 5.35421 67.6001C9.78886 71.5253 22.758 65.9682 24.0615 65.67C33.3393 63.5393 40.6305 55.5117 55.9657 62.2871C64.7067 66.1222 75.2732 67.4558 80.1422 63.2372C83.7843 60.0838 83.2623 53.0828 81.2304 45.5829C80.4253 42.6853 79.3518 39.745 78.0867 36.8047Z" fill="#958176" fill-rule="evenodd" fill-opacity="0.251" transform="matrix(1 0 -0 1 17.969 70.912)" />
        </g>
        <path d="M0 0L486 2.28882e-05L486 65L0 64.9999L0 0Z" fill="#448AFF" fill-rule="evenodd" transform="matrix(0.391 0.921 -0.921 0.391 -192.528 -328.773)" />
      </g>
      <g transform="matrix(0.85 0.534 -0.498 0.863 418.334 36.846)">
        <g transform="matrix(1 0 -0 1 13.342 14.061)">
          <path d="M7.36917 28.5817C11.7383 31.2551 16.0873 22.8691 16.2686 16.7909C16.4296 10.6899 14.8972 5.61561 12.3804 2.57652C9.86356 -0.462563 7.33181 -0.298445 4.83683 0.484148C2.98028 1.06648 1.51008 2.25816 0.724837 5.0916C0.302015 6.57686 -9.53674e-07 8.54199 -9.53674e-07 11.0784C-9.53674e-07 13.2491 0.261746 15.3971 0.724837 17.4536C1.85236 22.4121 4.26848 26.7079 7.36917 28.5817Z" fill="#958176" fill-rule="evenodd" fill-opacity="0.251" transform="matrix(1 0 -0 1 15.554 0)" />
          <path d="M5.50673 29.4987C9.17118 30.6641 12.7551 25.5228 14.9296 20.2901C15.9363 17.8451 16.641 15.4001 16.9028 13.5264C17.3659 10.2588 17.0766 4.01306 14.6212 1.55387C12.1754 -0.895686 7.96242 -0.154388 5.17313 1.74343C2.21885 3.7535 1.13758 6.30569 0.291931 12.9551C-0.533573 19.6045 0.150993 27.7849 5.50673 29.4987Z" fill="#958176" fill-rule="evenodd" fill-opacity="0.251" transform="matrix(1 0 -0 1 35.517 0.614)" />
          <path d="M7.63176 1.6339C7.63176 1.6339 4.37 4.28454 2.13509 8.12338C1.0881 9.92854 0.242455 12.0079 0.0813789 14.2015C-0.240776 18.5431 0.383392 21.9706 2.13508 23.8901C3.1418 25.0097 4.51093 25.6038 6.3029 25.6038C11.1754 25.6038 17.3768 17.6062 17.3768 10.1799C17.3567 2.77642 13.8331 -2.93615 7.63176 1.6339C7.63176 1.6339 7.63176 1.6339 7.63176 1.6339Z" fill="#958176" fill-rule="evenodd" fill-opacity="0.251" transform="matrix(1 0 -0 1 48.332 26.194)" />
          <path d="M16.2583 21.6993C17.0436 19.9626 17.1845 17.4491 16.7013 13.7931C16.6006 13.0162 16.4396 12.285 16.2583 11.5538C14.5671 5.22423 9.53872 0.0479069 5.82598 0.000335693C0.749659 -0.0647087 -1.2384 9.40583 0.775035 15.1184C2.78847 20.831 6.65426 25.9723 11.3456 25.0126C13.7818 24.5327 15.4127 23.573 16.2583 21.6993Z" fill="#958176" fill-rule="evenodd" fill-opacity="0.251" transform="matrix(1 0 -0 1 0 21.644)" />
          <path d="M41.0096 19.7359C37.7277 11.9896 32.0901 4.70039 29.5733 2.16401C26.5531 -0.875076 20.0353 -0.432846 15.9048 1.75998C11.8255 3.92556 11.9758 7.00826 6.82144 14.1604C4.86841 16.8796 3.13685 19.8044 2.06974 22.7292C-1.2323 31.8694 -0.284966 33.4505 2.81192 36.2493C5.14091 38.3541 11.9521 35.3743 12.6366 35.2143C17.5092 34.0718 21.3383 29.7671 29.392 33.4003C33.9827 35.4568 39.532 36.172 42.0891 33.9098C44.0018 32.2189 43.7277 28.4647 42.6606 24.443C42.2378 22.8892 41.674 21.3125 41.0096 19.7359Z" fill="#958176" fill-rule="evenodd" fill-opacity="0.251" transform="matrix(1 0 -0 1 9.437 38.026)" />
        </g>
      </g>
      <g transform="matrix(0.958 0.287 -0.297 0.955 414.087 172.633)">
        <g transform="matrix(1 -0 -0 1 25.404 26.221)">
          <path d="M14.0317 53.301C22.3511 58.2867 30.6321 42.6478 30.9771 31.3128C31.2838 19.9352 28.3658 10.4724 23.5736 4.80487C18.7813 -0.862618 13.9606 -0.55656 9.20986 0.90287C5.67478 1.98885 2.87535 4.21117 1.38017 9.49514C0.575069 12.265 0 15.9297 0 20.6597C0 24.7079 0.498396 28.7135 1.38017 32.5486C3.5271 41.7955 8.12766 49.8067 14.0317 53.301Z" fill="#958176" fill-rule="evenodd" fill-opacity="0.251" transform="matrix(1 0 -0 1 29.616 0)" />
          <path d="M10.4854 55.0111C17.4629 57.1844 24.2871 47.5965 28.4276 37.8382C30.3445 33.2787 31.6863 28.7191 32.1847 25.2249C33.0665 19.1313 32.5156 7.48382 27.8403 2.89776C23.1834 -1.67033 15.1613 -0.287913 9.8502 3.25127C4.22494 6.99978 2.16607 11.7593 0.55587 24.1596C-1.01598 36.5598 0.287514 51.8152 10.4854 55.0111Z" fill="#958176" fill-rule="evenodd" fill-opacity="0.251" transform="matrix(1 0 -0 1 67.628 1.145)" />
          <path d="M14.5317 3.04701C14.5317 3.04701 8.32095 7.99008 4.06544 15.149C2.07185 18.5154 0.461662 22.3932 0.154953 26.484C-0.458458 34.5804 0.730026 40.9723 4.06544 44.5518C5.98234 46.6398 8.58932 47.7477 12.0014 47.7477C21.2792 47.7477 33.0873 32.8333 33.0873 18.9841C33.049 5.17764 26.3398 -5.47552 14.5317 3.04701C14.5317 3.04701 14.5317 3.04701 14.5317 3.04701Z" fill="#958176" fill-rule="evenodd" fill-opacity="0.251" transform="matrix(1 0 0 1 92.028 48.848)" />
          <path d="M30.9577 40.4662C32.4529 37.2277 32.7212 32.5403 31.8011 25.7222C31.6094 24.2734 31.3027 22.9098 30.9577 21.5462C27.7373 9.74248 18.1628 0.0893402 11.0933 0.00062561C1.42743 -0.120674 -2.35805 17.5406 1.47575 28.1938C5.30955 38.8469 12.6705 48.4348 21.6032 46.6451C26.2421 45.7502 29.3475 43.9605 30.9577 40.4662Z" fill="#958176" fill-rule="evenodd" fill-opacity="0.251" transform="matrix(1 0 0 1 0 40.363)" />
          <path d="M78.0867 36.8047C71.8376 22.359 61.103 8.76559 56.3107 4.03558C50.56 -1.6319 38.1494 -0.807198 30.2844 3.28212C22.5171 7.32064 22.8033 13.0695 12.9888 26.4072C9.26999 31.4781 5.97292 36.9326 3.94101 42.387C-2.34643 59.4321 -0.542604 62.3808 5.35422 67.6001C9.78887 71.5253 22.7581 65.9683 24.0616 65.67C33.3394 63.5393 40.6305 55.5117 55.9657 62.2871C64.7068 66.1222 75.2733 67.4559 80.1422 63.2372C83.7843 60.0839 83.2624 53.0828 81.2305 45.5829C80.4253 42.6853 79.3519 39.745 78.0867 36.8047Z" fill="#958176" fill-rule="evenodd" fill-opacity="0.251" transform="matrix(1 0 -0 1 17.969 70.913)" />
        </g>
      </g>
      <g transform="matrix(0.952 -0.442 0.314 0.905 126.57 355.365)">
        <g transform="matrix(1 0 -0 1 46.97 45.982)">
          <path d="M25.9435 93.4698C41.3254 102.213 56.6363 74.7881 57.2742 54.9109C57.8413 34.9589 52.4461 18.3645 43.5856 8.42591C34.7252 -1.51271 25.812 -0.975999 17.0283 1.58329C10.4922 3.48769 5.3163 7.3848 2.55183 16.6509C1.06326 21.5081 0 27.9346 0 36.2292C0 43.3283 0.921494 50.3526 2.55183 57.078C6.52132 73.2936 15.0274 87.3422 25.9435 93.4698Z" fill="#958176" fill-rule="evenodd" fill-opacity="0.251" transform="matrix(1 -0 0 1 54.757 0)" />
          <path d="M19.3867 96.4688C32.2876 100.28 44.905 83.4664 52.5604 66.354C56.1046 58.3582 58.5856 50.3625 59.507 44.2349C61.1374 33.549 60.1189 13.1238 51.4746 5.08157C42.8642 -2.92914 28.0321 -0.504894 18.2122 5.70149C7.81158 12.275 4.0049 20.6213 1.02776 42.3668C-1.87846 64.1122 0.531586 90.8643 19.3867 96.4688Z" fill="#958176" fill-rule="evenodd" fill-opacity="0.251" transform="matrix(1 -0 0 1 125.039 2.008)" />
          <path d="M26.868 5.34331C26.868 5.34331 15.3848 14.0116 7.51668 26.5656C3.83069 32.469 0.853577 39.2692 0.286499 46.4429C-0.847656 60.641 1.34976 71.85 7.51668 78.127C11.0609 81.7886 15.881 83.7315 22.1897 83.7315C39.3436 83.7315 61.1759 57.5772 61.1759 33.291C61.105 9.07964 48.7003 -9.60201 26.868 5.34331C26.868 5.34331 26.868 5.34331 26.868 5.34331Z" fill="#958176" fill-rule="evenodd" fill-opacity="0.251" transform="matrix(1 -0 0 1 170.154 85.66)" />
          <path d="M57.2383 70.9625C60.0028 65.2832 60.499 57.0633 58.7978 45.1071C58.4433 42.5664 57.8763 40.1751 57.2383 37.7839C51.2841 17.0846 33.5816 0.156662 20.5106 0.001091C2.63921 -0.211617 -4.35985 30.7596 2.72855 49.4412C9.81695 68.1229 23.4267 84.9364 39.9426 81.7978C48.5196 80.2285 54.2612 77.0901 57.2383 70.9625Z" fill="#958176" fill-rule="evenodd" fill-opacity="0.251" transform="matrix(1 -0 0 1 0 70.781)" />
          <path d="M144.376 64.5416C132.822 39.2093 112.975 15.3715 104.114 7.07687C93.4815 -2.86176 70.5352 -1.41553 55.9935 5.75558C41.6324 12.8376 42.1615 22.9189 24.0152 46.3083C17.1395 55.2008 11.0435 64.7658 7.28661 74.3308C-4.33836 104.221 -1.00323 109.392 9.89953 118.545C18.0989 125.428 42.0779 115.683 44.4879 115.16C61.6419 111.424 75.1226 97.3466 103.476 109.228C119.638 115.953 139.174 118.292 148.177 110.894C154.911 105.364 153.946 93.0872 150.189 79.9353C148.7 74.8539 146.715 69.6977 144.376 64.5416Z" fill="#958176" fill-rule="evenodd" fill-opacity="0.251" transform="matrix(1 -0 0 1 33.223 124.354)" />
        </g>
      </g>
      <g transform="matrix(-0.74 0.798 -0.625 -0.677 239.546 429.057)">
        <g transform="matrix(1 0 0 1 17.18 18.105)">
          <path d="M9.48907 36.8038C15.1151 40.2464 20.7152 29.4479 20.9486 21.6212C21.156 13.7651 19.1826 7.23106 15.9418 3.31771C12.701 -0.59563 9.44097 -0.3843 6.22825 0.623423C3.83762 1.37328 1.94448 2.90777 0.933353 6.5563C0.388897 8.46884 0 10.9993 0 14.2653C0 17.0605 0.337046 19.8264 0.933353 22.4745C2.38523 28.8594 5.4964 34.3911 9.48907 36.8038Z" fill="#958176" fill-rule="evenodd" fill-opacity="0.251" transform="matrix(1 -0 0 1 20.028 0)" />
          <path d="M7.09087 37.9846C11.8095 39.4853 16.4244 32.8649 19.2244 26.1269C20.5207 22.9786 21.4282 19.8303 21.7652 17.4175C22.3615 13.21 21.989 5.1675 18.8273 2.00087C15.678 -1.15335 10.253 -0.198802 6.66128 2.24497C2.85715 4.83328 1.46482 8.11966 0.375912 16.6819C-0.687065 25.2442 0.194435 35.7779 7.09087 37.9846Z" fill="#958176" fill-rule="evenodd" fill-opacity="0.251" transform="matrix(1 -0 0 1 45.734 0.791)" />
          <path d="M9.8272 2.10393C9.8272 2.10393 5.62711 5.51707 2.74929 10.4602C1.40111 12.7847 0.312206 15.4623 0.10479 18.2869C-0.310036 23.8774 0.493687 28.291 2.74929 30.7626C4.04561 32.2043 5.8086 32.9693 8.11607 32.9693C14.3903 32.9693 22.3756 22.6711 22.3756 13.1084C22.3497 3.57511 17.8125 -3.7808 9.8272 2.10393C9.8272 2.10393 9.8272 2.10393 9.8272 2.10393Z" fill="#958176" fill-rule="evenodd" fill-opacity="0.251" transform="matrix(1 -0 0 1 62.235 33.729)" />
          <path d="M20.9354 27.9415C21.9465 25.7053 22.128 22.4687 21.5058 17.761C21.3762 16.7605 21.1688 15.819 20.9354 14.8774C18.7576 6.72709 12.2827 0.0616875 7.50195 0.000431061C0.965314 -0.0833244 -1.59465 12.1116 0.997992 19.4675C3.59063 26.8234 8.56851 33.4438 14.6094 32.208C17.7465 31.5901 19.8465 30.3543 20.9354 27.9415Z" fill="#958176" fill-rule="evenodd" fill-opacity="0.251" transform="matrix(1 -0 0 1 0 27.87)" />
          <path d="M52.8069 25.4133C48.5809 15.4387 41.3215 6.05256 38.0807 2.78653C34.1917 -1.12682 25.7989 -0.557365 20.4801 2.26627C15.2274 5.05483 15.4209 9.02433 8.78378 18.2339C6.26891 21.7354 4.03924 25.5016 2.66514 29.2678C-1.58679 41.0372 -0.36694 43.0733 3.62084 46.6772C6.61981 49.3875 15.3903 45.5504 16.2718 45.3445C22.546 43.8733 27.4767 38.3303 37.8473 43.0086C43.7585 45.6568 50.9042 46.5776 54.1969 43.6647C56.6599 41.4873 56.3069 36.6531 54.9328 31.4746C54.3884 29.4738 53.6624 27.4435 52.8069 25.4133Z" fill="#958176" fill-rule="evenodd" fill-opacity="0.251" transform="matrix(1 -0 0 1 12.152 48.965)" />
        </g>
      </g>
      <g transform="matrix(0.82 0.583 -0.537 0.837 207.281 518.731)">
        <g transform="matrix(1 0 -0 1 29.973 27.741)">
          <path d="M16.5554 56.3909C26.371 61.6656 36.1415 45.1201 36.5486 33.1281C36.9104 21.0909 33.4676 11.0794 27.8134 5.08341C22.1592 -0.912624 16.4715 -0.588824 10.8663 0.95521C6.69543 2.10415 3.3925 4.4553 1.6284 10.0456C0.678501 12.976 0 16.8531 0 21.8573C0 26.1402 0.588032 30.378 1.6284 34.4355C4.16146 44.2185 9.58947 52.6941 16.5554 56.3909Z" fill="#958176" fill-rule="evenodd" fill-opacity="0.251" transform="matrix(1 0 -0 1 34.943 0)" />
          <path d="M12.3713 58.2002C20.6038 60.4994 28.6553 50.3557 33.5405 40.0317C35.8022 35.2079 37.3853 30.384 37.9734 26.6872C39.0137 20.2403 38.3638 7.91767 32.8476 3.06574C27.353 -1.76716 17.8882 -0.304603 11.6218 3.43974C4.98483 7.40556 2.55566 12.441 0.655846 25.5601C-1.19871 38.6793 0.339218 54.819 12.3713 58.2002Z" fill="#958176" fill-rule="evenodd" fill-opacity="0.251" transform="matrix(1 0 -0 1 79.791 1.211)" />
          <path d="M17.1453 3.22365C17.1453 3.22365 9.81752 8.45327 4.79662 16.0272C2.44449 19.5888 0.544693 23.6913 0.182823 28.0193C-0.540916 36.585 0.86132 43.3475 4.79662 47.1344C7.0583 49.3435 10.1342 50.5157 14.1599 50.5157C25.1064 50.5157 39.0383 34.7366 39.0383 20.0847C38.993 5.4778 31.0772 -5.79294 17.1453 3.22365C17.1453 3.22365 17.1453 3.22365 17.1453 3.22365Z" fill="#958176" fill-rule="evenodd" fill-opacity="0.251" transform="matrix(1 0 -0 1 108.581 51.679)" />
          <path d="M36.5256 42.8121C38.2897 39.3858 38.6063 34.4267 37.5207 27.2134C37.2946 25.6806 36.9327 24.2379 36.5256 22.7952C32.726 10.3073 21.4295 0.0945206 13.0885 0.000659943C1.68417 -0.12767 -2.78216 18.5574 1.74117 29.8282C6.26451 41.0989 14.9493 51.2426 25.4887 49.3491C30.9619 48.4024 34.6258 46.5089 36.5256 42.8121Z" fill="#958176" fill-rule="evenodd" fill-opacity="0.251" transform="matrix(1 0 -0 1 0 42.702)" />
          <path d="M92.1311 38.9383C84.7581 23.6552 72.0928 9.27374 66.4386 4.26953C59.6536 -1.7265 45.0108 -0.853989 35.7313 3.47238C26.5669 7.74503 26.9046 13.8271 15.3249 27.9381C10.9373 33.3029 7.04718 39.0736 4.64982 44.8442C-2.76846 62.8774 -0.640198 65.997 6.31721 71.5189C11.5495 75.6716 26.8512 69.7925 28.3892 69.4769C39.3357 67.2227 47.9381 58.7297 66.0315 65.8979C76.3447 69.9554 88.8116 71.3663 94.5563 66.9031C98.8535 63.567 98.2376 56.16 95.8403 48.2254C94.8904 45.1598 93.6238 42.049 92.1311 38.9383Z" fill="#958176" fill-rule="evenodd" fill-opacity="0.251" transform="matrix(1 0 -0 1 21.201 75.023)" />
        </g>
      </g>
      <g transform="matrix(0.348 1.002 -0.86 0.399 204.875 841.31)">
        <g transform="matrix(1 -0 0 1 37.486 32.301)">
          <path d="M20.7052 65.6606C32.9813 71.8024 45.2008 52.5372 45.7099 38.5738C46.1625 24.5579 41.8567 12.9007 34.7852 5.91904C27.7137 -1.06264 20.6003 -0.685617 13.5901 1.11223C8.37373 2.45003 4.24288 5.18767 2.03658 11.6969C0.848576 15.109 0 19.6235 0 25.4503C0 30.4372 0.735432 35.3717 2.03658 40.0961C5.20459 51.4873 11.9932 61.3561 20.7052 65.6606Z" fill="#958176" fill-rule="evenodd" fill-opacity="0.251" transform="matrix(1 0 -0 1 43.702 0)" />
          <path d="M15.4723 67.7674C25.7683 70.4445 35.8381 58.6334 41.9478 46.6123C44.7764 40.9955 46.7564 35.3786 47.4919 31.0741C48.793 23.5675 47.9801 9.2192 41.0813 3.5697C34.2094 -2.05766 22.3721 -0.354675 14.535 4.00518C6.23433 8.62292 3.19626 14.4861 0.820244 29.7618C-1.49918 45.0375 0.424248 63.8303 15.4723 67.7674Z" fill="#958176" fill-rule="evenodd" fill-opacity="0.251" transform="matrix(1 0 -0 1 99.792 1.41)" />
          <path d="M21.443 3.75357C21.443 3.75357 12.2784 9.84286 5.99896 18.6618C3.05724 22.8088 0.681229 27.5858 0.228653 32.6252C-0.676498 42.599 1.07722 50.4731 5.99896 54.8826C8.82756 57.4548 12.6744 58.8196 17.7093 58.8196C31.3997 58.8196 48.8238 40.4468 48.8238 23.3863C48.7672 6.37826 38.8671 -6.74521 21.443 3.75357C21.443 3.75357 21.443 3.75357 21.443 3.75357Z" fill="#958176" fill-rule="evenodd" fill-opacity="0.251" transform="matrix(1 0 -0 1 135.798 60.175)" />
          <path d="M45.6812 49.8497C47.8875 45.8601 48.2835 40.0858 46.9258 31.6868C46.643 29.902 46.1904 28.2222 45.6812 26.5424C40.9292 12.0016 26.8011 0.110058 16.3693 0.000770569C2.10632 -0.148655 -3.47954 21.608 2.17762 34.7315C7.83479 47.8549 18.6966 59.6661 31.8778 57.4613C38.7229 56.3589 43.3052 54.1542 45.6812 49.8497Z" fill="#958176" fill-rule="evenodd" fill-opacity="0.251" transform="matrix(1 0 -0 1 0 49.722)" />
          <path d="M115.225 45.3392C106.004 27.5438 90.1637 10.7982 83.0923 4.97137C74.6065 -2.01031 56.2934 -0.994377 44.6878 4.04319C33.2263 9.01819 33.6486 16.1001 19.1663 32.5307C13.6788 38.7774 8.81365 45.4967 5.81536 52.2159C-3.4624 73.2134 -0.800669 76.8459 7.9007 83.2756C14.4445 88.1109 33.5818 81.2653 35.5053 80.8978C49.1956 78.2731 59.9544 68.384 82.5831 76.7305C95.4815 81.455 111.073 83.0978 118.258 77.9009C123.632 74.0164 122.862 65.3919 119.864 56.1529C118.676 52.5833 117.092 48.9613 115.225 45.3392Z" fill="#958176" fill-rule="evenodd" fill-opacity="0.251" transform="matrix(1 0 -0 1 26.515 87.356)" />
        </g>
      </g>
      <g transform="matrix(0.964 0.269 -0.282 0.959 332.441 489.586)">
        <g transform="matrix(1 0 -0 1 40.755 43.891)">
          <path d="M22.5113 89.2212C35.8582 97.5668 49.1436 71.3887 49.6971 52.4149C50.1891 33.3699 45.5077 17.5298 37.8195 8.04293C30.1312 -1.44395 22.3972 -0.931633 14.7755 1.51133C9.10415 3.32916 4.61297 7.04913 2.21423 15.894C0.922596 20.5305 0 26.6649 0 34.5825C0 41.3588 0.799583 48.0638 2.21423 54.4835C5.65858 69.9621 13.0393 83.3721 22.5113 89.2212Z" fill="#958176" fill-rule="evenodd" fill-opacity="0.251" transform="matrix(1 0 -0 1 47.513 -0)" />
          <path d="M16.8219 92.0838C28.0161 95.7217 38.9642 79.6724 45.6069 63.3379C48.6822 55.7056 50.8349 48.0733 51.6345 42.2242C53.0492 32.0241 52.1654 12.5273 44.6647 4.85059C37.1935 -2.79599 24.3235 -0.481941 15.8028 5.44233C6.77814 11.717 3.47507 19.684 0.891792 40.441C-1.62995 61.198 0.461258 86.7341 16.8219 92.0838Z" fill="#958176" fill-rule="evenodd" fill-opacity="0.251" transform="matrix(1 0 -0 1 108.497 1.917)" />
          <path d="M23.3135 5.10043C23.3135 5.10043 13.3494 13.3747 6.52225 25.3581C3.32391 30.9932 0.740662 37.4842 0.248596 44.3319C-0.735519 57.8846 1.17119 68.5841 6.52225 74.5758C9.59756 78.0709 13.78 79.9255 19.2541 79.9255C34.1386 79.9255 53.0826 54.96 53.0826 31.7778C53.021 8.66693 42.2574 -9.16555 23.3135 5.10043C23.3135 5.10043 23.3135 5.10043 23.3135 5.10043Z" fill="#958176" fill-rule="evenodd" fill-opacity="0.251" transform="matrix(1 0 -0 1 147.643 81.767)" />
          <path d="M49.6659 67.7369C52.0647 62.3158 52.4952 54.4696 51.0191 43.0568C50.7115 40.6315 50.2195 38.349 49.6659 36.0664C44.4994 16.3081 29.1389 0.149551 17.7972 0.00104523C2.29005 -0.201996 -3.78306 29.3614 2.36757 47.1939C8.51821 65.0264 20.3274 81.0756 34.6584 78.0797C42.1007 76.5818 47.0827 73.586 49.6659 67.7369Z" fill="#958176" fill-rule="evenodd" fill-opacity="0.251" transform="matrix(1 0 -0 1 0 67.564)" />
          <path d="M125.276 61.6079C115.25 37.4271 98.0286 14.6728 90.3403 6.75522C81.1143 -2.73166 61.2037 -1.35118 48.5858 5.49398C36.1246 12.2541 36.5837 21.8771 20.8381 44.2034C14.872 52.6917 9.58245 61.8219 6.32262 70.9521C-3.76442 99.4841 -0.87051 104.42 8.58986 113.157C15.7044 119.727 36.5111 110.425 38.6024 109.926C53.4869 106.359 65.1842 92.9217 89.7867 104.263C103.81 110.683 120.762 112.915 128.573 105.854C134.417 100.575 133.579 88.8559 130.319 76.3019C129.028 71.4514 127.306 66.5297 125.276 61.6079Z" fill="#958176" fill-rule="evenodd" fill-opacity="0.251" transform="matrix(1 0 -0 1 28.828 118.701)" />
        </g>
      </g>
      <g transform="matrix(0.752 -0.785 0.613 0.69 175.91 907.343)">
        <g transform="matrix(1 0 -0 1 30.666 30.021)">
          <path d="M16.9383 61.0258C26.981 66.734 36.9774 48.8287 37.3939 35.8509C37.7642 22.8244 34.2417 11.9901 28.4567 5.50122C22.6718 -0.987636 16.8525 -0.637222 11.1177 1.03372C6.8503 2.27709 3.47097 4.82149 1.66607 10.8713C0.694195 14.0425 0 18.2383 0 23.6538C0 28.2887 0.601639 32.8748 1.66607 37.2658C4.25772 47.8529 9.81128 57.0251 16.9383 61.0258Z" fill="#958176" fill-rule="evenodd" fill-opacity="0.251" transform="matrix(1 -0 0 1 35.751 0)" />
          <path d="M12.6575 62.9838C21.0803 65.472 29.3181 54.4946 34.3163 43.322C36.6303 38.1017 38.2501 32.8813 38.8517 28.8807C39.9162 21.9039 39.2512 8.56843 33.6074 3.31772C27.9857 -1.91241 18.3019 -0.32964 11.8906 3.72246C5.10013 8.01424 2.61477 13.4635 0.671021 27.661C-1.22643 41.8584 0.347069 59.3246 12.6575 62.9838Z" fill="#958176" fill-rule="evenodd" fill-opacity="0.251" transform="matrix(1 -0 0 1 81.637 1.311)" />
          <path d="M17.5419 3.48861C17.5419 3.48861 10.0446 9.14808 4.90758 17.3445C2.50103 21.1988 0.557297 25.6386 0.18705 30.3223C-0.553429 39.5921 0.881248 46.9103 4.90758 51.0086C7.22156 53.3992 10.3686 54.6677 14.4875 54.6677C25.6871 54.6677 39.9413 37.5917 39.9413 21.7355C39.895 5.92803 31.796 -6.26908 17.5419 3.48861C17.5419 3.48861 17.5419 3.48861 17.5419 3.48861Z" fill="#958176" fill-rule="evenodd" fill-opacity="0.251" transform="matrix(1 -0 0 1 111.092 55.927)" />
          <path d="M37.3705 46.3309C39.1754 42.623 39.4993 37.2562 38.3886 29.4501C38.1572 27.7913 37.787 26.2301 37.3705 24.6688C33.483 11.1544 21.9251 0.102287 13.3912 0.000713348C1.72312 -0.138165 -2.84651 20.0827 1.78145 32.2798C6.40941 44.4769 15.2951 55.4543 26.0782 53.4052C31.6781 52.3806 35.4267 50.3315 37.3705 46.3309Z" fill="#958176" fill-rule="evenodd" fill-opacity="0.251" transform="matrix(1 -0 0 1 0 46.212)" />
          <path d="M94.2622 42.1388C86.7186 25.5995 73.7603 10.036 67.9753 4.62045C61.0334 -1.86842 46.0519 -0.924187 36.5577 3.75779C27.1815 8.3816 27.5269 14.9636 15.6794 30.2344C11.1902 36.0402 7.21019 42.2851 4.75738 48.5301C-2.83249 68.0454 -0.655001 71.4215 6.46333 77.3973C11.8166 81.8913 27.4723 75.5289 29.0458 75.1874C40.2455 72.7479 49.047 63.5569 67.5588 71.3142C78.1106 75.7052 90.8659 77.2321 96.7434 72.402C101.14 68.7917 100.51 60.7759 98.0571 52.1892C97.0852 48.8715 95.7894 45.5052 94.2622 42.1388Z" fill="#958176" fill-rule="evenodd" fill-opacity="0.251" transform="matrix(1 -0 0 1 21.691 81.19)" />
        </g>
      </g>
      <g transform="matrix(0.506 -0.982 0.793 0.437 393.853 901.36)">
        <g transform="matrix(1 0 -0 1 22.297 24.012)">
          <path d="M12.3156 48.8116C19.6175 53.3774 26.8857 39.0557 27.1885 28.6754C27.4577 18.2562 24.8966 9.5903 20.6905 4.40017C16.4843 -0.789963 12.2532 -0.509683 8.08347 0.826824C4.98074 1.82134 2.52369 3.85648 1.21137 8.6954C0.504738 11.2319 0 14.588 0 18.9196C0 22.6268 0.437441 26.295 1.21137 29.8071C3.09573 38.2752 7.13363 45.6117 12.3156 48.8116Z" fill="#958176" fill-rule="evenodd" fill-opacity="0.251" transform="matrix(1 -0 0 1 25.994 0)" />
          <path d="M9.20303 50.3777C15.3272 52.3679 21.3167 43.5876 24.9509 34.6512C26.6333 30.4757 27.811 26.3002 28.2485 23.1003C29.0224 17.5199 28.5389 6.85348 24.4354 2.65369C20.348 -1.52965 13.3071 -0.263664 8.64549 2.97742C3.70822 6.41021 1.90116 10.7688 0.487888 22.1247C-0.89172 33.4805 0.25235 47.451 9.20303 50.3777Z" fill="#958176" fill-rule="evenodd" fill-opacity="0.251" transform="matrix(1 -0 0 1 59.357 1.048)" />
          <path d="M12.7544 2.79037C12.7544 2.79037 7.30328 7.3171 3.56822 13.8731C1.81846 16.9559 0.405205 20.5071 0.136002 24.2533C-0.40239 31.6678 0.640739 37.5213 3.56822 40.7993C5.25069 42.7115 7.53883 43.7261 10.5336 43.7261C18.6767 43.7261 29.0407 30.0678 29.0407 17.3852C29.007 4.74155 23.1184 -5.01434 12.7544 2.79037C12.7544 2.79037 12.7544 2.79037 12.7544 2.79037Z" fill="#958176" fill-rule="evenodd" fill-opacity="0.251" transform="matrix(1 -0 0 1 80.773 44.734)" />
          <path d="M27.1715 37.0579C28.4838 34.0921 28.7194 29.7995 27.9118 23.5557C27.7435 22.2289 27.4743 20.9802 27.1715 19.7314C24.345 8.92191 15.9414 0.0818138 9.73657 0.000572205C1.25285 -0.110512 -2.06965 16.0632 1.29527 25.8191C4.66018 35.575 11.1208 44.3553 18.9611 42.7163C23.0326 41.8968 25.7582 40.2578 27.1715 37.0579Z" fill="#958176" fill-rule="evenodd" fill-opacity="0.251" transform="matrix(1 -0 0 1 -0 36.963)" />
          <path d="M68.5365 33.7048C63.0517 20.4758 53.63 8.02729 49.4238 3.69568C44.3764 -1.49445 33.4836 -0.739212 26.5806 3.00568C19.7632 6.70404 20.0144 11.9687 11.4002 24.183C8.13625 28.8268 5.24242 33.8218 3.45901 38.8169C-2.05946 54.4263 -0.47624 57.1266 4.69939 61.9064C8.59167 65.5009 19.9747 60.4119 21.1188 60.1388C29.2619 58.1876 35.6613 50.8361 49.121 57.0408C56.793 60.553 66.0672 61.7742 70.3406 57.9109C73.5373 55.0232 73.0792 48.6118 71.2958 41.7436C70.5891 39.09 69.647 36.3974 68.5365 33.7048Z" fill="#958176" fill-rule="evenodd" fill-opacity="0.251" transform="matrix(1 -0 0 1 15.771 64.939)" />
        </g>
      </g>
      <g transform="matrix(0.229 1.048 -0.892 0.286 171.073 38.283)">
        <g transform="matrix(1 0 -0 1 13.342 14.061)">
          <path d="M7.36917 28.5817C11.7383 31.2552 16.0874 22.8691 16.2686 16.7909C16.4296 10.6899 14.8972 5.61561 12.3804 2.57652C9.86357 -0.462562 7.33182 -0.298445 4.83683 0.484148C2.98028 1.06648 1.51008 2.25816 0.724838 5.0916C0.302015 6.57686 0 8.54199 0 11.0784C0 13.2491 0.261747 15.3971 0.724838 17.4536C1.85236 22.4121 4.26848 26.708 7.36917 28.5817Z" fill="#958176" fill-rule="evenodd" fill-opacity="0.251" transform="matrix(1 0 0 1 15.554 0)" />
          <path d="M5.50674 29.4987C9.17119 30.6641 12.7551 25.5228 14.9296 20.2901C15.9363 17.8451 16.641 15.4001 16.9028 13.5264C17.3659 10.2588 17.0766 4.01306 14.6212 1.55387C12.1754 -0.895686 7.96242 -0.154388 5.17313 1.74343C2.21885 3.7535 1.13758 6.30569 0.291931 12.9551C-0.533573 19.6045 0.150997 27.7849 5.50674 29.4987Z" fill="#958176" fill-rule="evenodd" fill-opacity="0.251" transform="matrix(1 0 0 1 35.517 0.614)" />
          <path d="M7.63176 1.63391C7.63176 1.63391 4.37 4.28454 2.13509 8.12338C1.0881 9.92855 0.242458 12.0079 0.0813789 14.2016C-0.240772 18.5431 0.383392 21.9706 2.13509 23.8901C3.1418 25.0097 4.51094 25.6038 6.3029 25.6038C11.1754 25.6038 17.3768 17.6062 17.3768 10.1799C17.3567 2.77642 13.8331 -2.93615 7.63176 1.63391C7.63176 1.63391 7.63176 1.63391 7.63176 1.63391Z" fill="#958176" fill-rule="evenodd" fill-opacity="0.251" transform="matrix(1 0 0 1 48.332 26.194)" />
          <path d="M16.2584 21.6993C17.0436 19.9626 17.1845 17.4491 16.7013 13.7931C16.6006 13.0162 16.4396 12.285 16.2584 11.5538C14.5671 5.22423 9.53873 0.0479069 5.82598 0.000335693C0.749659 -0.0647087 -1.2384 9.40583 0.775036 15.1184C2.78847 20.831 6.65427 25.9723 11.3456 25.0126C13.7818 24.5327 15.4127 23.573 16.2584 21.6993Z" fill="#958176" fill-rule="evenodd" fill-opacity="0.251" transform="matrix(1 0 0 1 0 21.644)" />
          <path d="M41.0096 19.7359C37.7277 11.9896 32.0901 4.70039 29.5733 2.16401C26.5531 -0.875076 20.0353 -0.432846 15.9048 1.75998C11.8255 3.92556 11.9758 7.00826 6.82145 14.1604C4.86841 16.8796 3.13686 19.8044 2.06974 22.7292C-1.2323 31.8693 -0.284965 33.4506 2.81193 36.2493C5.14092 38.3541 11.9521 35.3743 12.6366 35.2143C17.5092 34.0718 21.3383 29.7671 29.3921 33.4003C33.9827 35.4568 39.532 36.172 42.0891 33.9098C44.0019 32.2189 43.7277 28.4647 42.6606 24.443C42.2378 22.8892 41.674 21.3125 41.0096 19.7359Z" fill="#958176" fill-rule="evenodd" fill-opacity="0.251" transform="matrix(1 0 0 1 9.437 38.025)" />
        </g>
      </g>
    </g>
  </g>
</svg>